<svg width="251" height="60" viewBox="0 0 251 60" fill="none" xmlns="http://www.w3.org/2000/svg">
<g opacity="0.6">
<rect x="0.5" y="0.5" width="250" height="59" rx="29.5" stroke="#DADADA"/>
<path d="M38.4922 36H36.9766L30.7344 26.4141H30.6719C30.7552 27.5391 30.7969 28.5703 30.7969 29.5078V36H29.5703V24.5781H31.0703L37.2969 34.125H37.3594C37.349 33.9844 37.3255 33.5339 37.2891 32.7734C37.2526 32.0078 37.2396 31.4609 37.25 31.1328V24.5781H38.4922V36ZM46.7031 36L46.4453 34.7812H46.3828C45.9557 35.3177 45.5286 35.6823 45.1016 35.875C44.6797 36.0625 44.151 36.1562 43.5156 36.1562C42.6667 36.1562 42 35.9375 41.5156 35.5C41.0365 35.0625 40.7969 34.4401 40.7969 33.6328C40.7969 31.9036 42.1797 30.9974 44.9453 30.9141L46.3984 30.8672V30.3359C46.3984 29.6641 46.2526 29.1693 45.9609 28.8516C45.6745 28.5286 45.2135 28.3672 44.5781 28.3672C43.8646 28.3672 43.0573 28.5859 42.1562 29.0234L41.7578 28.0312C42.1797 27.8021 42.6406 27.6224 43.1406 27.4922C43.6458 27.362 44.151 27.2969 44.6562 27.2969C45.6771 27.2969 46.4323 27.5234 46.9219 27.9766C47.4167 28.4297 47.6641 29.1562 47.6641 30.1562V36H46.7031ZM43.7734 35.0859C44.5807 35.0859 45.2135 34.8646 45.6719 34.4219C46.1354 33.9792 46.3672 33.3594 46.3672 32.5625V31.7891L45.0703 31.8438C44.0391 31.8802 43.2943 32.0417 42.8359 32.3281C42.3828 32.6094 42.1562 33.0495 42.1562 33.6484C42.1562 34.1172 42.2969 34.474 42.5781 34.7188C42.8646 34.9635 43.263 35.0859 43.7734 35.0859ZM61.2578 36V30.4297C61.2578 29.7474 61.112 29.237 60.8203 28.8984C60.5286 28.5547 60.0755 28.3828 59.4609 28.3828C58.6536 28.3828 58.0573 28.6146 57.6719 29.0781C57.2865 29.5417 57.0938 30.2552 57.0938 31.2188V36H55.7969V30.4297C55.7969 29.7474 55.651 29.237 55.3594 28.8984C55.0677 28.5547 54.612 28.3828 53.9922 28.3828C53.1797 28.3828 52.5833 28.6276 52.2031 29.1172C51.8281 29.6016 51.6406 30.3984 51.6406 31.5078V36H50.3438V27.4375H51.3984L51.6094 28.6094H51.6719C51.9167 28.1927 52.2604 27.8672 52.7031 27.6328C53.151 27.3984 53.651 27.2812 54.2031 27.2812C55.5417 27.2812 56.4167 27.7656 56.8281 28.7344H56.8906C57.1458 28.2865 57.5156 27.9323 58 27.6719C58.4844 27.4115 59.0365 27.2812 59.6562 27.2812C60.625 27.2812 61.349 27.5312 61.8281 28.0312C62.3125 28.526 62.5547 29.3203 62.5547 30.4141V36H61.2578ZM68.8516 36.1562C67.5859 36.1562 66.5859 35.7708 65.8516 35C65.1224 34.2292 64.7578 33.1589 64.7578 31.7891C64.7578 30.4089 65.0964 29.3125 65.7734 28.5C66.4557 27.6875 67.3698 27.2812 68.5156 27.2812C69.5885 27.2812 70.4375 27.6354 71.0625 28.3438C71.6875 29.0469 72 29.9766 72 31.1328V31.9531H66.1016C66.1276 32.9583 66.3802 33.7214 66.8594 34.2422C67.3438 34.763 68.0234 35.0234 68.8984 35.0234C69.8203 35.0234 70.7318 34.8307 71.6328 34.4453V35.6016C71.1745 35.7995 70.7396 35.9401 70.3281 36.0234C69.9219 36.112 69.4297 36.1562 68.8516 36.1562ZM68.5 28.3672C67.8125 28.3672 67.263 28.5911 66.8516 29.0391C66.4453 29.487 66.2057 30.1068 66.1328 30.8984H70.6094C70.6094 30.0807 70.4271 29.4557 70.0625 29.0234C69.6979 28.5859 69.1771 28.3672 68.5 28.3672Z" fill="#787878"/>
</g>
</svg>
