<svg width="251" height="60" viewBox="0 0 251 60" fill="none" xmlns="http://www.w3.org/2000/svg">
<g opacity="0.6">
<rect x="0.5" y="0.5" width="250" height="59" rx="29.5" stroke="#DADADA"/>
<path d="M35.9375 36H29.5703V24.5781H35.9375V25.7578H30.8984V29.4375H35.6328V30.6094H30.8984V34.8125H35.9375V36ZM37.5625 32.3047V31.1172H41.3984V32.3047H37.5625ZM54.3516 36V30.4297C54.3516 29.7474 54.2057 29.237 53.9141 28.8984C53.6224 28.5547 53.1693 28.3828 52.5547 28.3828C51.7474 28.3828 51.151 28.6146 50.7656 29.0781C50.3802 29.5417 50.1875 30.2552 50.1875 31.2188V36H48.8906V30.4297C48.8906 29.7474 48.7448 29.237 48.4531 28.8984C48.1615 28.5547 47.7057 28.3828 47.0859 28.3828C46.2734 28.3828 45.6771 28.6276 45.2969 29.1172C44.9219 29.6016 44.7344 30.3984 44.7344 31.5078V36H43.4375V27.4375H44.4922L44.7031 28.6094H44.7656C45.0104 28.1927 45.3542 27.8672 45.7969 27.6328C46.2448 27.3984 46.7448 27.2812 47.2969 27.2812C48.6354 27.2812 49.5104 27.7656 49.9219 28.7344H49.9844C50.2396 28.2865 50.6094 27.9323 51.0938 27.6719C51.5781 27.4115 52.1302 27.2812 52.75 27.2812C53.7188 27.2812 54.4427 27.5312 54.9219 28.0312C55.4062 28.526 55.6484 29.3203 55.6484 30.4141V36H54.3516ZM63.5938 36L63.3359 34.7812H63.2734C62.8464 35.3177 62.4193 35.6823 61.9922 35.875C61.5703 36.0625 61.0417 36.1562 60.4062 36.1562C59.5573 36.1562 58.8906 35.9375 58.4062 35.5C57.9271 35.0625 57.6875 34.4401 57.6875 33.6328C57.6875 31.9036 59.0703 30.9974 61.8359 30.9141L63.2891 30.8672V30.3359C63.2891 29.6641 63.1432 29.1693 62.8516 28.8516C62.5651 28.5286 62.1042 28.3672 61.4688 28.3672C60.7552 28.3672 59.9479 28.5859 59.0469 29.0234L58.6484 28.0312C59.0703 27.8021 59.5312 27.6224 60.0312 27.4922C60.5365 27.362 61.0417 27.2969 61.5469 27.2969C62.5677 27.2969 63.3229 27.5234 63.8125 27.9766C64.3073 28.4297 64.5547 29.1562 64.5547 30.1562V36H63.5938ZM60.6641 35.0859C61.4714 35.0859 62.1042 34.8646 62.5625 34.4219C63.026 33.9792 63.2578 33.3594 63.2578 32.5625V31.7891L61.9609 31.8438C60.9297 31.8802 60.1849 32.0417 59.7266 32.3281C59.2734 32.6094 59.0469 33.0495 59.0469 33.6484C59.0469 34.1172 59.1875 34.474 59.4688 34.7188C59.7552 34.9635 60.1536 35.0859 60.6641 35.0859ZM68.5312 36H67.2344V27.4375H68.5312V36ZM67.125 25.1172C67.125 24.8203 67.1979 24.6042 67.3438 24.4688C67.4896 24.3281 67.6719 24.2578 67.8906 24.2578C68.099 24.2578 68.2786 24.3281 68.4297 24.4688C68.5807 24.6094 68.6562 24.8255 68.6562 25.1172C68.6562 25.4089 68.5807 25.6276 68.4297 25.7734C68.2786 25.9141 68.099 25.9844 67.8906 25.9844C67.6719 25.9844 67.4896 25.9141 67.3438 25.7734C67.1979 25.6276 67.125 25.4089 67.125 25.1172ZM72.5781 36H71.2812V23.8438H72.5781V36Z" fill="#787878"/>
</g>
</svg>
