<svg width="251" height="60" viewBox="0 0 251 60" fill="none" xmlns="http://www.w3.org/2000/svg">
<g opacity="0.6">
<rect x="0.5" y="0.5" width="250" height="59" rx="29.5" stroke="#DADADA"/>
<path d="M36.8125 27.9062C36.8125 29.0625 36.4167 29.9531 35.625 30.5781C34.8385 31.1979 33.7109 31.5078 32.2422 31.5078H30.8984V36H29.5703V24.5781H32.5312C35.3854 24.5781 36.8125 25.6875 36.8125 27.9062ZM30.8984 30.3672H32.0938C33.2708 30.3672 34.1224 30.1771 34.6484 29.7969C35.1745 29.4167 35.4375 28.8073 35.4375 27.9688C35.4375 27.2135 35.1901 26.651 34.6953 26.2812C34.2005 25.9115 33.4297 25.7266 32.3828 25.7266H30.8984V30.3672ZM44.875 36V30.4609C44.875 29.763 44.7161 29.2422 44.3984 28.8984C44.0807 28.5547 43.5833 28.3828 42.9062 28.3828C42.0052 28.3828 41.3464 28.6276 40.9297 29.1172C40.5182 29.6068 40.3125 30.4089 40.3125 31.5234V36H39.0156V23.8438H40.3125V27.5234C40.3125 27.9661 40.2917 28.3333 40.25 28.625H40.3281C40.5833 28.2135 40.9453 27.8906 41.4141 27.6562C41.888 27.4167 42.4271 27.2969 43.0312 27.2969C44.0781 27.2969 44.862 27.5469 45.3828 28.0469C45.9089 28.5417 46.1719 29.3307 46.1719 30.4141V36H44.875ZM56.2344 31.7109C56.2344 33.1068 55.8828 34.1979 55.1797 34.9844C54.4766 35.7656 53.5052 36.1562 52.2656 36.1562C51.5 36.1562 50.8203 35.9766 50.2266 35.6172C49.6328 35.2578 49.1745 34.7422 48.8516 34.0703C48.5286 33.3984 48.3672 32.612 48.3672 31.7109C48.3672 30.3151 48.7161 29.2292 49.4141 28.4531C50.112 27.6719 51.0807 27.2812 52.3203 27.2812C53.5182 27.2812 54.4688 27.6797 55.1719 28.4766C55.8802 29.2734 56.2344 30.3516 56.2344 31.7109ZM49.7109 31.7109C49.7109 32.8047 49.9297 33.638 50.3672 34.2109C50.8047 34.7839 51.4479 35.0703 52.2969 35.0703C53.1458 35.0703 53.7891 34.7865 54.2266 34.2188C54.6693 33.6458 54.8906 32.8099 54.8906 31.7109C54.8906 30.6224 54.6693 29.7969 54.2266 29.2344C53.7891 28.6667 53.1406 28.3828 52.2812 28.3828C51.4323 28.3828 50.7917 28.6615 50.3594 29.2188C49.9271 29.776 49.7109 30.6068 49.7109 31.7109ZM64.375 36V30.4609C64.375 29.763 64.2161 29.2422 63.8984 28.8984C63.5807 28.5547 63.0833 28.3828 62.4062 28.3828C61.5104 28.3828 60.8542 28.625 60.4375 29.1094C60.0208 29.5938 59.8125 30.3932 59.8125 31.5078V36H58.5156V27.4375H59.5703L59.7812 28.6094H59.8438C60.1094 28.1875 60.4818 27.862 60.9609 27.6328C61.4401 27.3984 61.974 27.2812 62.5625 27.2812C63.5938 27.2812 64.3698 27.5312 64.8906 28.0312C65.4115 28.526 65.6719 29.3203 65.6719 30.4141V36H64.375ZM71.9609 36.1562C70.6953 36.1562 69.6953 35.7708 68.9609 35C68.2318 34.2292 67.8672 33.1589 67.8672 31.7891C67.8672 30.4089 68.2057 29.3125 68.8828 28.5C69.5651 27.6875 70.4792 27.2812 71.625 27.2812C72.6979 27.2812 73.5469 27.6354 74.1719 28.3438C74.7969 29.0469 75.1094 29.9766 75.1094 31.1328V31.9531H69.2109C69.237 32.9583 69.4896 33.7214 69.9688 34.2422C70.4531 34.763 71.1328 35.0234 72.0078 35.0234C72.9297 35.0234 73.8411 34.8307 74.7422 34.4453V35.6016C74.2839 35.7995 73.849 35.9401 73.4375 36.0234C73.0312 36.112 72.5391 36.1562 71.9609 36.1562ZM71.6094 28.3672C70.9219 28.3672 70.3724 28.5911 69.9609 29.0391C69.5547 29.487 69.3151 30.1068 69.2422 30.8984H73.7188C73.7188 30.0807 73.5365 29.4557 73.1719 29.0234C72.8073 28.5859 72.2865 28.3672 71.6094 28.3672Z" fill="#787878"/>
</g>
</svg>
