<svg width="230" height="60" viewBox="0 0 230 60" fill="none" xmlns="http://www.w3.org/2000/svg">
<rect width="230" height="60" rx="30" fill="#3172B9"/>
<path d="M72.7935 30.1919H76.7339V35.5679C76.0894 35.7778 75.4692 35.9268 74.8735 36.0146C74.2827 36.1025 73.6431 36.1465 72.9546 36.1465C71.3335 36.1465 70.0835 35.668 69.2046 34.7109C68.3257 33.749 67.8862 32.394 67.8862 30.646C67.8862 28.9224 68.3818 27.5747 69.373 26.603C70.3643 25.6265 71.729 25.1382 73.4673 25.1382C74.5854 25.1382 75.645 25.353 76.646 25.7827L76.0308 27.2402C75.1616 26.8398 74.2925 26.6396 73.4233 26.6396C72.2808 26.6396 71.3774 26.9985 70.7134 27.7163C70.0493 28.4341 69.7173 29.4155 69.7173 30.6606C69.7173 31.9692 70.0151 32.9653 70.6108 33.6489C71.2114 34.3276 72.0732 34.667 73.1963 34.667C73.7627 34.667 74.3682 34.5962 75.0127 34.4546V31.6934H72.7935V30.1919ZM85.3691 36H79.312V25.292H85.3691V26.7715H81.0625V29.6865H85.0981V31.1514H81.0625V34.5132H85.3691V36ZM91.3896 36H89.6392V26.7935H86.4897V25.292H94.5391V26.7935H91.3896V36ZM106.258 33.0923C106.258 34.0444 105.914 34.7915 105.225 35.3335C104.537 35.8755 103.587 36.1465 102.376 36.1465C101.165 36.1465 100.174 35.9585 99.4023 35.5825V33.9272C99.8906 34.1567 100.408 34.3374 100.955 34.4692C101.507 34.6011 102.02 34.667 102.493 34.667C103.187 34.667 103.697 34.5352 104.024 34.2715C104.356 34.0078 104.522 33.6538 104.522 33.2095C104.522 32.8091 104.371 32.4697 104.068 32.1914C103.765 31.9131 103.14 31.5835 102.193 31.2026C101.216 30.8071 100.528 30.3555 100.127 29.8477C99.7271 29.3398 99.5269 28.7295 99.5269 28.0166C99.5269 27.123 99.8442 26.4199 100.479 25.9072C101.114 25.3945 101.966 25.1382 103.035 25.1382C104.061 25.1382 105.081 25.3628 106.097 25.812L105.54 27.2402C104.588 26.8398 103.738 26.6396 102.991 26.6396C102.425 26.6396 101.995 26.7642 101.702 27.0132C101.409 27.2573 101.263 27.582 101.263 27.9873C101.263 28.2656 101.321 28.5049 101.438 28.7051C101.556 28.9004 101.749 29.0859 102.017 29.2617C102.286 29.4375 102.769 29.6694 103.467 29.9575C104.253 30.2847 104.83 30.5898 105.196 30.873C105.562 31.1562 105.831 31.4761 106.001 31.8325C106.172 32.189 106.258 32.6089 106.258 33.0923ZM112.029 36H110.279V26.7935H107.129V25.292H115.179V26.7935H112.029V36ZM123.47 36L122.4 33.0264H118.306L117.259 36H115.413L119.419 25.248H121.324L125.33 36H123.47ZM121.939 31.5176L120.936 28.6025C120.862 28.4072 120.76 28.0996 120.628 27.6797C120.501 27.2598 120.413 26.9521 120.364 26.7568C120.232 27.3574 120.04 28.0142 119.786 28.7271L118.819 31.5176H121.939ZM128.494 30.2725H129.71C130.525 30.2725 131.116 30.1211 131.482 29.8184C131.849 29.5156 132.032 29.0664 132.032 28.4707C132.032 27.8652 131.834 27.4307 131.438 27.167C131.043 26.9033 130.447 26.7715 129.651 26.7715H128.494V30.2725ZM128.494 31.7227V36H126.744V25.292H129.769C131.15 25.292 132.173 25.5508 132.837 26.0684C133.501 26.5859 133.833 27.3672 133.833 28.4121C133.833 29.7451 133.14 30.6948 131.753 31.2612L134.778 36H132.786L130.223 31.7227H128.494ZM140.037 36H138.287V26.7935H135.137V25.292H143.187V26.7935H140.037V36ZM150.892 36H144.834V25.292H150.892V26.7715H146.585V29.6865H150.621V31.1514H146.585V34.5132H150.892V36ZM161.922 30.5435C161.922 32.311 161.431 33.6636 160.45 34.6011C159.468 35.5337 158.055 36 156.209 36H153.213V25.292H156.524C158.228 25.292 159.554 25.751 160.501 26.6689C161.448 27.5869 161.922 28.8784 161.922 30.5435ZM160.076 30.6021C160.076 28.0386 158.877 26.7568 156.48 26.7568H154.964V34.5278H156.209C158.787 34.5278 160.076 33.2192 160.076 30.6021Z" fill="white"/>
</svg>
