<svg width="251" height="60" viewBox="0 0 251 60" fill="none" xmlns="http://www.w3.org/2000/svg">
<g opacity="0.6">
<rect x="0.5" y="0.5" width="250" height="59" rx="29.5" stroke="#0E3B6C"/>
<path d="M34.4453 25.5859C33.8151 25.5859 33.2474 25.6953 32.7422 25.9141C32.2422 26.1276 31.8151 26.4401 31.4609 26.8516C31.112 27.2578 30.8438 27.75 30.6562 28.3281C30.4688 28.9062 30.375 29.5573 30.375 30.2812C30.375 31.2396 30.5234 32.0729 30.8203 32.7812C31.1224 33.4844 31.5703 34.0286 32.1641 34.4141C32.763 34.7995 33.5104 34.9922 34.4062 34.9922C34.9167 34.9922 35.3958 34.9505 35.8438 34.8672C36.2969 34.7786 36.737 34.6693 37.1641 34.5391V35.6953C36.7474 35.8516 36.3099 35.9661 35.8516 36.0391C35.3932 36.1172 34.849 36.1562 34.2188 36.1562C33.0573 36.1562 32.0859 35.9167 31.3047 35.4375C30.5286 34.9531 29.9453 34.2708 29.5547 33.3906C29.1693 32.5104 28.9766 31.4714 28.9766 30.2734C28.9766 29.4089 29.0964 28.6198 29.3359 27.9062C29.5807 27.1875 29.9349 26.5677 30.3984 26.0469C30.8672 25.526 31.4401 25.125 32.1172 24.8438C32.7995 24.5573 33.5807 24.4141 34.4609 24.4141C35.0391 24.4141 35.5964 24.4714 36.1328 24.5859C36.6693 24.7005 37.1536 24.8646 37.5859 25.0781L37.0547 26.2031C36.6901 26.0365 36.2891 25.8932 35.8516 25.7734C35.4193 25.6484 34.9505 25.5859 34.4453 25.5859ZM46.8281 31.7031C46.8281 32.4062 46.737 33.0339 46.5547 33.5859C46.3724 34.138 46.1094 34.6042 45.7656 34.9844C45.4219 35.3646 45.0052 35.6562 44.5156 35.8594C44.0312 36.0573 43.4818 36.1562 42.8672 36.1562C42.2943 36.1562 41.7682 36.0573 41.2891 35.8594C40.8151 35.6562 40.4036 35.3646 40.0547 34.9844C39.7109 34.6042 39.4427 34.138 39.25 33.5859C39.0625 33.0339 38.9688 32.4062 38.9688 31.7031C38.9688 30.7656 39.1276 29.9688 39.4453 29.3125C39.763 28.651 40.2161 28.1484 40.8047 27.8047C41.3984 27.4557 42.1042 27.2812 42.9219 27.2812C43.7031 27.2812 44.3854 27.4557 44.9688 27.8047C45.5573 28.1536 46.013 28.6589 46.3359 29.3203C46.6641 29.9766 46.8281 30.7708 46.8281 31.7031ZM40.3125 31.7031C40.3125 32.3906 40.4036 32.987 40.5859 33.4922C40.7682 33.9974 41.0495 34.388 41.4297 34.6641C41.8099 34.9401 42.2995 35.0781 42.8984 35.0781C43.4922 35.0781 43.9792 34.9401 44.3594 34.6641C44.7448 34.388 45.0286 33.9974 45.2109 33.4922C45.3932 32.987 45.4844 32.3906 45.4844 31.7031C45.4844 31.0208 45.3932 30.4323 45.2109 29.9375C45.0286 29.4375 44.7474 29.0521 44.3672 28.7812C43.987 28.5104 43.4948 28.375 42.8906 28.375C42 28.375 41.3464 28.6693 40.9297 29.2578C40.5182 29.8464 40.3125 30.6615 40.3125 31.7031ZM56.1406 27.4375V36H55.0781L54.8906 34.7969H54.8203C54.6432 35.0938 54.4141 35.3438 54.1328 35.5469C53.8516 35.75 53.5339 35.901 53.1797 36C52.8307 36.1042 52.4583 36.1562 52.0625 36.1562C51.3854 36.1562 50.8177 36.0469 50.3594 35.8281C49.901 35.6094 49.5547 35.2708 49.3203 34.8125C49.0911 34.3542 48.9766 33.7656 48.9766 33.0469V27.4375H50.2891V32.9531C50.2891 33.6667 50.4505 34.2005 50.7734 34.5547C51.0964 34.9036 51.5885 35.0781 52.25 35.0781C52.8854 35.0781 53.3906 34.9583 53.7656 34.7188C54.1458 34.4792 54.4193 34.1276 54.5859 33.6641C54.7526 33.1953 54.8359 32.6224 54.8359 31.9453V27.4375H56.1406ZM62.9375 27.2812C63.9531 27.2812 64.7214 27.5312 65.2422 28.0312C65.763 28.526 66.0234 29.3229 66.0234 30.4219V36H64.7422V30.5078C64.7422 29.7943 64.5781 29.2604 64.25 28.9062C63.9271 28.5521 63.4297 28.375 62.7578 28.375C61.8099 28.375 61.1432 28.6432 60.7578 29.1797C60.3724 29.7161 60.1797 30.4948 60.1797 31.5156V36H58.8828V27.4375H59.9297L60.125 28.6719H60.1953C60.3776 28.3698 60.6094 28.1172 60.8906 27.9141C61.1719 27.7057 61.487 27.5495 61.8359 27.4453C62.1849 27.3359 62.5521 27.2812 62.9375 27.2812ZM71.4609 35.0938C71.6745 35.0938 71.8932 35.0755 72.1172 35.0391C72.3411 35.0026 72.5234 34.9583 72.6641 34.9062V35.9141C72.513 35.9818 72.3021 36.0391 72.0312 36.0859C71.7656 36.1328 71.5052 36.1562 71.25 36.1562C70.7969 36.1562 70.3854 36.0781 70.0156 35.9219C69.6458 35.7604 69.349 35.4896 69.125 35.1094C68.9062 34.7292 68.7969 34.2031 68.7969 33.5312V28.4531H67.5781V27.8203L68.8047 27.3125L69.3203 25.4531H70.1016V27.4375H72.6094V28.4531H70.1016V33.4922C70.1016 34.0286 70.224 34.4297 70.4688 34.6953C70.7188 34.9609 71.0495 35.0938 71.4609 35.0938ZM78.2891 27.2812C78.4609 27.2812 78.6406 27.2917 78.8281 27.3125C79.0156 27.3281 79.1823 27.3516 79.3281 27.3828L79.1641 28.5859C79.0234 28.5495 78.8672 28.5208 78.6953 28.5C78.5234 28.4792 78.362 28.4688 78.2109 28.4688C77.8672 28.4688 77.5417 28.5391 77.2344 28.6797C76.9323 28.8151 76.6667 29.013 76.4375 29.2734C76.2083 29.5286 76.0286 29.8385 75.8984 30.2031C75.7682 30.5625 75.7031 30.9635 75.7031 31.4062V36H74.3984V27.4375H75.4766L75.6172 29.0156H75.6719C75.849 28.6979 76.0625 28.4089 76.3125 28.1484C76.5625 27.8828 76.8516 27.6719 77.1797 27.5156C77.513 27.3594 77.8828 27.2812 78.2891 27.2812ZM79.5938 27.4375H80.9844L82.875 32.4062C82.9844 32.6979 83.0859 32.9792 83.1797 33.25C83.2734 33.5156 83.3568 33.7708 83.4297 34.0156C83.5026 34.2604 83.5599 34.4974 83.6016 34.7266H83.6562C83.7292 34.4661 83.8333 34.125 83.9688 33.7031C84.1042 33.276 84.25 32.8411 84.4062 32.3984L86.1953 27.4375H87.5938L83.8672 37.2578C83.6693 37.7839 83.4375 38.2422 83.1719 38.6328C82.9115 39.0234 82.5938 39.3229 82.2188 39.5312C81.8438 39.7448 81.3906 39.8516 80.8594 39.8516C80.6146 39.8516 80.3984 39.8359 80.2109 39.8047C80.0234 39.7786 79.862 39.7474 79.7266 39.7109V38.6719C79.8411 38.6979 79.9792 38.7214 80.1406 38.7422C80.3073 38.763 80.4792 38.7734 80.6562 38.7734C80.9792 38.7734 81.2578 38.7109 81.4922 38.5859C81.7318 38.4661 81.9375 38.2891 82.1094 38.0547C82.2812 37.8203 82.4297 37.5417 82.5547 37.2188L83.0234 36.0156L79.5938 27.4375Z" fill="#1C1C1C"/>
<path d="M217 29L223 36H211L217 29Z" fill="#1C1C1C"/>
</g>
</svg>
