<svg width="520" height="139" viewBox="0 0 520 139" fill="none" xmlns="http://www.w3.org/2000/svg">
<g opacity="0.6">
<rect x="0.5" y="0.5" width="519" height="138" rx="19.5" stroke="#DADADA"/>
<path d="M34.4453 25.5859C33.8151 25.5859 33.2474 25.6953 32.7422 25.9141C32.2422 26.1276 31.8151 26.4401 31.4609 26.8516C31.112 27.2578 30.8438 27.75 30.6562 28.3281C30.4688 28.9062 30.375 29.5573 30.375 30.2812C30.375 31.2396 30.5234 32.0729 30.8203 32.7812C31.1224 33.4844 31.5703 34.0286 32.1641 34.4141C32.763 34.7995 33.5104 34.9922 34.4062 34.9922C34.9167 34.9922 35.3958 34.9505 35.8438 34.8672C36.2969 34.7786 36.737 34.6693 37.1641 34.5391V35.6953C36.7474 35.8516 36.3099 35.9661 35.8516 36.0391C35.3932 36.1172 34.849 36.1562 34.2188 36.1562C33.0573 36.1562 32.0859 35.9167 31.3047 35.4375C30.5286 34.9531 29.9453 34.2708 29.5547 33.3906C29.1693 32.5104 28.9766 31.4714 28.9766 30.2734C28.9766 29.4089 29.0964 28.6198 29.3359 27.9062C29.5807 27.1875 29.9349 26.5677 30.3984 26.0469C30.8672 25.526 31.4401 25.125 32.1172 24.8438C32.7995 24.5573 33.5807 24.4141 34.4609 24.4141C35.0391 24.4141 35.5964 24.4714 36.1328 24.5859C36.6693 24.7005 37.1536 24.8646 37.5859 25.0781L37.0547 26.2031C36.6901 26.0365 36.2891 25.8932 35.8516 25.7734C35.4193 25.6484 34.9505 25.5859 34.4453 25.5859ZM46.8281 31.7031C46.8281 32.4062 46.737 33.0339 46.5547 33.5859C46.3724 34.138 46.1094 34.6042 45.7656 34.9844C45.4219 35.3646 45.0052 35.6562 44.5156 35.8594C44.0312 36.0573 43.4818 36.1562 42.8672 36.1562C42.2943 36.1562 41.7682 36.0573 41.2891 35.8594C40.8151 35.6562 40.4036 35.3646 40.0547 34.9844C39.7109 34.6042 39.4427 34.138 39.25 33.5859C39.0625 33.0339 38.9688 32.4062 38.9688 31.7031C38.9688 30.7656 39.1276 29.9688 39.4453 29.3125C39.763 28.651 40.2161 28.1484 40.8047 27.8047C41.3984 27.4557 42.1042 27.2812 42.9219 27.2812C43.7031 27.2812 44.3854 27.4557 44.9688 27.8047C45.5573 28.1536 46.013 28.6589 46.3359 29.3203C46.6641 29.9766 46.8281 30.7708 46.8281 31.7031ZM40.3125 31.7031C40.3125 32.3906 40.4036 32.987 40.5859 33.4922C40.7682 33.9974 41.0495 34.388 41.4297 34.6641C41.8099 34.9401 42.2995 35.0781 42.8984 35.0781C43.4922 35.0781 43.9792 34.9401 44.3594 34.6641C44.7448 34.388 45.0286 33.9974 45.2109 33.4922C45.3932 32.987 45.4844 32.3906 45.4844 31.7031C45.4844 31.0208 45.3932 30.4323 45.2109 29.9375C45.0286 29.4375 44.7474 29.0521 44.3672 28.7812C43.987 28.5104 43.4948 28.375 42.8906 28.375C42 28.375 41.3464 28.6693 40.9297 29.2578C40.5182 29.8464 40.3125 30.6615 40.3125 31.7031ZM58.3672 27.2812C59.3099 27.2812 60.0208 27.5286 60.5 28.0234C60.9792 28.513 61.2188 29.3021 61.2188 30.3906V36H59.9375V30.4531C59.9375 29.7604 59.7865 29.2422 59.4844 28.8984C59.1875 28.5495 58.7448 28.375 58.1562 28.375C57.3281 28.375 56.7266 28.6146 56.3516 29.0938C55.9766 29.5729 55.7891 30.2786 55.7891 31.2109V36H54.5V30.4531C54.5 29.9896 54.4323 29.6042 54.2969 29.2969C54.1667 28.9896 53.9688 28.7604 53.7031 28.6094C53.4427 28.4531 53.112 28.375 52.7109 28.375C52.1432 28.375 51.6875 28.4922 51.3438 28.7266C51 28.9609 50.75 29.3099 50.5938 29.7734C50.4427 30.2318 50.3672 30.7969 50.3672 31.4688V36H49.0703V27.4375H50.1172L50.3125 28.6484H50.3828C50.5547 28.3516 50.7708 28.1016 51.0312 27.8984C51.2917 27.6953 51.5833 27.5417 51.9062 27.4375C52.2292 27.3333 52.5729 27.2812 52.9375 27.2812C53.5885 27.2812 54.1328 27.4036 54.5703 27.6484C55.013 27.888 55.3333 28.2552 55.5312 28.75H55.6016C55.8828 28.2552 56.2682 27.888 56.7578 27.6484C57.2474 27.4036 57.7839 27.2812 58.3672 27.2812ZM73.1797 27.2812C74.1224 27.2812 74.8333 27.5286 75.3125 28.0234C75.7917 28.513 76.0312 29.3021 76.0312 30.3906V36H74.75V30.4531C74.75 29.7604 74.599 29.2422 74.2969 28.8984C74 28.5495 73.5573 28.375 72.9688 28.375C72.1406 28.375 71.5391 28.6146 71.1641 29.0938C70.7891 29.5729 70.6016 30.2786 70.6016 31.2109V36H69.3125V30.4531C69.3125 29.9896 69.2448 29.6042 69.1094 29.2969C68.9792 28.9896 68.7812 28.7604 68.5156 28.6094C68.2552 28.4531 67.9245 28.375 67.5234 28.375C66.9557 28.375 66.5 28.4922 66.1562 28.7266C65.8125 28.9609 65.5625 29.3099 65.4062 29.7734C65.2552 30.2318 65.1797 30.7969 65.1797 31.4688V36H63.8828V27.4375H64.9297L65.125 28.6484H65.1953C65.3672 28.3516 65.5833 28.1016 65.8438 27.8984C66.1042 27.6953 66.3958 27.5417 66.7188 27.4375C67.0417 27.3333 67.3854 27.2812 67.75 27.2812C68.401 27.2812 68.9453 27.4036 69.3828 27.6484C69.8255 27.888 70.1458 28.2552 70.3438 28.75H70.4141C70.6953 28.2552 71.0807 27.888 71.5703 27.6484C72.0599 27.4036 72.5964 27.2812 73.1797 27.2812ZM81.9922 27.2812C82.7214 27.2812 83.3464 27.4427 83.8672 27.7656C84.388 28.0885 84.7865 28.5417 85.0625 29.125C85.3385 29.7031 85.4766 30.3802 85.4766 31.1562V31.9609H79.5625C79.5781 32.9661 79.8281 33.7318 80.3125 34.2578C80.7969 34.7839 81.4792 35.0469 82.3594 35.0469C82.901 35.0469 83.3802 34.9974 83.7969 34.8984C84.2135 34.7995 84.6458 34.6536 85.0938 34.4609V35.6016C84.6615 35.7943 84.2318 35.9349 83.8047 36.0234C83.3828 36.112 82.8828 36.1562 82.3047 36.1562C81.4818 36.1562 80.763 35.9896 80.1484 35.6562C79.5391 35.3177 79.0651 34.8229 78.7266 34.1719C78.388 33.5208 78.2188 32.724 78.2188 31.7812C78.2188 30.8594 78.3724 30.0625 78.6797 29.3906C78.9922 28.7135 79.4297 28.1927 79.9922 27.8281C80.5599 27.4635 81.2266 27.2812 81.9922 27.2812ZM81.9766 28.3438C81.2839 28.3438 80.7318 28.5703 80.3203 29.0234C79.9089 29.4766 79.6641 30.1094 79.5859 30.9219H84.1172C84.112 30.4115 84.0312 29.9635 83.875 29.5781C83.724 29.1875 83.4922 28.8854 83.1797 28.6719C82.8672 28.4531 82.4661 28.3438 81.9766 28.3438ZM91.7344 27.2812C92.75 27.2812 93.5182 27.5312 94.0391 28.0312C94.5599 28.526 94.8203 29.3229 94.8203 30.4219V36H93.5391V30.5078C93.5391 29.7943 93.375 29.2604 93.0469 28.9062C92.724 28.5521 92.2266 28.375 91.5547 28.375C90.6068 28.375 89.9401 28.6432 89.5547 29.1797C89.1693 29.7161 88.9766 30.4948 88.9766 31.5156V36H87.6797V27.4375H88.7266L88.9219 28.6719H88.9922C89.1745 28.3698 89.4062 28.1172 89.6875 27.9141C89.9688 27.7057 90.2839 27.5495 90.6328 27.4453C90.9818 27.3359 91.349 27.2812 91.7344 27.2812ZM100.258 35.0938C100.471 35.0938 100.69 35.0755 100.914 35.0391C101.138 35.0026 101.32 34.9583 101.461 34.9062V35.9141C101.31 35.9818 101.099 36.0391 100.828 36.0859C100.562 36.1328 100.302 36.1562 100.047 36.1562C99.5938 36.1562 99.1823 36.0781 98.8125 35.9219C98.4427 35.7604 98.1458 35.4896 97.9219 35.1094C97.7031 34.7292 97.5938 34.2031 97.5938 33.5312V28.4531H96.375V27.8203L97.6016 27.3125L98.1172 25.4531H98.8984V27.4375H101.406V28.4531H98.8984V33.4922C98.8984 34.0286 99.0208 34.4297 99.2656 34.6953C99.5156 34.9609 99.8464 35.0938 100.258 35.0938Z" fill="#787878"/>
</g>
</svg>
