<svg width="246" height="261" viewBox="0 0 246 261" fill="none" xmlns="http://www.w3.org/2000/svg">
<g filter="url(#filter0_d_5192_86)">
<rect x="19" y="19" width="208" height="223" rx="20" fill="white"/>
</g>
<rect x="19" y="37.8311" width="208" height="21.8044" fill="#3172B9"/>
<path d="M43.1953 43.4092V50.7998C43.1953 52.1019 42.8021 53.1253 42.0156 53.8701C41.2292 54.6149 40.1484 54.9873 38.7734 54.9873C37.3984 54.9873 36.3333 54.6123 35.5781 53.8623C34.8281 53.1123 34.4531 52.0811 34.4531 50.7686V43.4092H35.7812V50.8623C35.7812 51.8154 36.0417 52.5472 36.5625 53.0576C37.0833 53.568 37.849 53.8232 38.8594 53.8232C39.8229 53.8232 40.5651 53.568 41.0859 53.0576C41.6068 52.542 41.8672 51.805 41.8672 50.8467V43.4092H43.1953ZM51.8906 54.8311V49.292C51.8906 48.5941 51.7318 48.0732 51.4141 47.7295C51.0964 47.3857 50.599 47.2139 49.9219 47.2139C49.026 47.2139 48.3698 47.4561 47.9531 47.9404C47.5365 48.4248 47.3281 49.2243 47.3281 50.3389V54.8311H46.0312V46.2686H47.0859L47.2969 47.4404H47.3594C47.625 47.0186 47.9974 46.693 48.4766 46.4639C48.9557 46.2295 49.4896 46.1123 50.0781 46.1123C51.1094 46.1123 51.8854 46.3623 52.4062 46.8623C52.9271 47.3571 53.1875 48.1514 53.1875 49.2451V54.8311H51.8906ZM57.1562 54.8311H55.8594V46.2686H57.1562V54.8311ZM55.75 43.9482C55.75 43.6514 55.8229 43.4352 55.9688 43.2998C56.1146 43.1592 56.2969 43.0889 56.5156 43.0889C56.724 43.0889 56.9036 43.1592 57.0547 43.2998C57.2057 43.4404 57.2812 43.6566 57.2812 43.9482C57.2812 44.2399 57.2057 44.4587 57.0547 44.6045C56.9036 44.7451 56.724 44.8154 56.5156 44.8154C56.2969 44.8154 56.1146 44.7451 55.9688 44.6045C55.8229 44.4587 55.75 44.2399 55.75 43.9482ZM62.6719 53.917C62.901 53.917 63.1224 53.9014 63.3359 53.8701C63.5495 53.8337 63.7188 53.7972 63.8438 53.7607V54.7529C63.7031 54.8206 63.4948 54.8753 63.2188 54.917C62.9479 54.9639 62.7031 54.9873 62.4844 54.9873C60.8281 54.9873 60 54.1149 60 52.3701V47.2764H58.7734V46.6514L60 46.1123L60.5469 44.2842H61.2969V46.2686H63.7812V47.2764H61.2969V52.3154C61.2969 52.8311 61.4193 53.2269 61.6641 53.5029C61.9089 53.779 62.2448 53.917 62.6719 53.917ZM69.1797 54.9873C67.9141 54.9873 66.9141 54.6019 66.1797 53.8311C65.4505 53.0602 65.0859 51.9899 65.0859 50.6201C65.0859 49.2399 65.4245 48.1436 66.1016 47.3311C66.7839 46.5186 67.6979 46.1123 68.8438 46.1123C69.9167 46.1123 70.7656 46.4665 71.3906 47.1748C72.0156 47.8779 72.3281 48.8076 72.3281 49.9639V50.7842H66.4297C66.4557 51.7894 66.7083 52.5524 67.1875 53.0732C67.6719 53.5941 68.3516 53.8545 69.2266 53.8545C70.1484 53.8545 71.0599 53.6618 71.9609 53.2764V54.4326C71.5026 54.6305 71.0677 54.7712 70.6562 54.8545C70.25 54.943 69.7578 54.9873 69.1797 54.9873ZM68.8281 47.1982C68.1406 47.1982 67.5911 47.4222 67.1797 47.8701C66.7734 48.318 66.5339 48.9378 66.4609 49.7295H70.9375C70.9375 48.9118 70.7552 48.2868 70.3906 47.8545C70.026 47.417 69.5052 47.1982 68.8281 47.1982ZM80.375 53.6826H80.3047C79.7057 54.5524 78.8099 54.9873 77.6172 54.9873C76.4974 54.9873 75.625 54.6045 75 53.8389C74.3802 53.0732 74.0703 51.9847 74.0703 50.5732C74.0703 49.1618 74.3828 48.0654 75.0078 47.2842C75.6328 46.5029 76.5026 46.1123 77.6172 46.1123C78.7786 46.1123 79.6693 46.5342 80.2891 47.3779H80.3906L80.3359 46.7607L80.3047 46.1592V42.6748H81.6016V54.8311H80.5469L80.375 53.6826ZM77.7812 53.9014C78.6667 53.9014 79.3073 53.6618 79.7031 53.1826C80.1042 52.6982 80.3047 51.9196 80.3047 50.8467V50.5732C80.3047 49.3597 80.1016 48.4951 79.6953 47.9795C79.2943 47.4587 78.651 47.1982 77.7656 47.1982C77.0052 47.1982 76.4219 47.4951 76.0156 48.0889C75.6146 48.6774 75.4141 49.5107 75.4141 50.5889C75.4141 51.6826 75.6146 52.5081 76.0156 53.0654C76.4167 53.6227 77.0052 53.9014 77.7812 53.9014ZM96.9609 54.8311H95.3984L91.2344 49.292L90.0391 50.3545V54.8311H88.7109V43.4092H90.0391V49.0732L95.2188 43.4092H96.7891L92.1953 48.3701L96.9609 54.8311ZM99.6406 54.8311H98.3438V46.2686H99.6406V54.8311ZM98.2344 43.9482C98.2344 43.6514 98.3073 43.4352 98.4531 43.2998C98.599 43.1592 98.7812 43.0889 99 43.0889C99.2083 43.0889 99.388 43.1592 99.5391 43.2998C99.6901 43.4404 99.7656 43.6566 99.7656 43.9482C99.7656 44.2399 99.6901 44.4587 99.5391 44.6045C99.388 44.7451 99.2083 44.8154 99 44.8154C98.7812 44.8154 98.599 44.7451 98.4531 44.6045C98.3073 44.4587 98.2344 44.2399 98.2344 43.9482ZM108.25 54.8311V49.292C108.25 48.5941 108.091 48.0732 107.773 47.7295C107.456 47.3857 106.958 47.2139 106.281 47.2139C105.385 47.2139 104.729 47.4561 104.312 47.9404C103.896 48.4248 103.688 49.2243 103.688 50.3389V54.8311H102.391V46.2686H103.445L103.656 47.4404H103.719C103.984 47.0186 104.357 46.693 104.836 46.4639C105.315 46.2295 105.849 46.1123 106.438 46.1123C107.469 46.1123 108.245 46.3623 108.766 46.8623C109.286 47.3571 109.547 48.1514 109.547 49.2451V54.8311H108.25ZM119.227 46.2686V47.0889L117.641 47.2764C117.786 47.4587 117.917 47.6982 118.031 47.9951C118.146 48.2868 118.203 48.6175 118.203 48.9873C118.203 49.8258 117.917 50.4951 117.344 50.9951C116.771 51.4951 115.984 51.7451 114.984 51.7451C114.729 51.7451 114.49 51.7243 114.266 51.6826C113.714 51.9743 113.438 52.3415 113.438 52.7842C113.438 53.0186 113.534 53.193 113.727 53.3076C113.919 53.417 114.25 53.4717 114.719 53.4717H116.234C117.161 53.4717 117.872 53.667 118.367 54.0576C118.867 54.4482 119.117 55.016 119.117 55.7607C119.117 56.7087 118.737 57.43 117.977 57.9248C117.216 58.4248 116.107 58.6748 114.648 58.6748C113.529 58.6748 112.664 58.4665 112.055 58.0498C111.451 57.6331 111.148 57.0446 111.148 56.2842C111.148 55.7633 111.315 55.3128 111.648 54.9326C111.982 54.5524 112.451 54.2946 113.055 54.1592C112.836 54.0602 112.651 53.9066 112.5 53.6982C112.354 53.4899 112.281 53.2477 112.281 52.9717C112.281 52.6592 112.365 52.3857 112.531 52.1514C112.698 51.917 112.961 51.6904 113.32 51.4717C112.878 51.2894 112.516 50.9795 112.234 50.542C111.958 50.1045 111.82 49.6045 111.82 49.042C111.82 48.1045 112.102 47.3831 112.664 46.8779C113.227 46.3675 114.023 46.1123 115.055 46.1123C115.503 46.1123 115.906 46.1644 116.266 46.2686H119.227ZM112.398 56.2686C112.398 56.7321 112.594 57.0837 112.984 57.3232C113.375 57.5628 113.935 57.6826 114.664 57.6826C115.753 57.6826 116.557 57.5186 117.078 57.1904C117.604 56.8675 117.867 56.4274 117.867 55.8701C117.867 55.4066 117.724 55.0837 117.438 54.9014C117.151 54.7243 116.612 54.6357 115.82 54.6357H114.266C113.677 54.6357 113.219 54.7764 112.891 55.0576C112.562 55.3389 112.398 55.7425 112.398 56.2686ZM113.102 49.0107C113.102 49.6097 113.271 50.0628 113.609 50.3701C113.948 50.6774 114.419 50.8311 115.023 50.8311C116.289 50.8311 116.922 50.2165 116.922 48.9873C116.922 47.7008 116.281 47.0576 115 47.0576C114.391 47.0576 113.922 47.2217 113.594 47.5498C113.266 47.8779 113.102 48.3649 113.102 49.0107ZM126.812 53.6826H126.742C126.143 54.5524 125.247 54.9873 124.055 54.9873C122.935 54.9873 122.062 54.6045 121.438 53.8389C120.818 53.0732 120.508 51.9847 120.508 50.5732C120.508 49.1618 120.82 48.0654 121.445 47.2842C122.07 46.5029 122.94 46.1123 124.055 46.1123C125.216 46.1123 126.107 46.5342 126.727 47.3779H126.828L126.773 46.7607L126.742 46.1592V42.6748H128.039V54.8311H126.984L126.812 53.6826ZM124.219 53.9014C125.104 53.9014 125.745 53.6618 126.141 53.1826C126.542 52.6982 126.742 51.9196 126.742 50.8467V50.5732C126.742 49.3597 126.539 48.4951 126.133 47.9795C125.732 47.4587 125.089 47.1982 124.203 47.1982C123.443 47.1982 122.859 47.4951 122.453 48.0889C122.052 48.6774 121.852 49.5107 121.852 50.5889C121.852 51.6826 122.052 52.5081 122.453 53.0654C122.854 53.6227 123.443 53.9014 124.219 53.9014ZM138.188 50.542C138.188 51.9378 137.836 53.029 137.133 53.8154C136.43 54.5967 135.458 54.9873 134.219 54.9873C133.453 54.9873 132.773 54.8076 132.18 54.4482C131.586 54.0889 131.128 53.5732 130.805 52.9014C130.482 52.2295 130.32 51.443 130.32 50.542C130.32 49.1462 130.669 48.0602 131.367 47.2842C132.065 46.5029 133.034 46.1123 134.273 46.1123C135.471 46.1123 136.422 46.5107 137.125 47.3076C137.833 48.1045 138.188 49.1826 138.188 50.542ZM131.664 50.542C131.664 51.6357 131.883 52.4691 132.32 53.042C132.758 53.6149 133.401 53.9014 134.25 53.9014C135.099 53.9014 135.742 53.6175 136.18 53.0498C136.622 52.4769 136.844 51.641 136.844 50.542C136.844 49.4535 136.622 48.6279 136.18 48.0654C135.742 47.4977 135.094 47.2139 134.234 47.2139C133.385 47.2139 132.745 47.4925 132.312 48.0498C131.88 48.6071 131.664 49.4378 131.664 50.542ZM151.383 54.8311V49.2607C151.383 48.5785 151.237 48.068 150.945 47.7295C150.654 47.3857 150.201 47.2139 149.586 47.2139C148.779 47.2139 148.182 47.4456 147.797 47.9092C147.411 48.3727 147.219 49.0863 147.219 50.0498V54.8311H145.922V49.2607C145.922 48.5785 145.776 48.068 145.484 47.7295C145.193 47.3857 144.737 47.2139 144.117 47.2139C143.305 47.2139 142.708 47.4587 142.328 47.9482C141.953 48.4326 141.766 49.2295 141.766 50.3389V54.8311H140.469V46.2686H141.523L141.734 47.4404H141.797C142.042 47.0238 142.385 46.6982 142.828 46.4639C143.276 46.2295 143.776 46.1123 144.328 46.1123C145.667 46.1123 146.542 46.5967 146.953 47.5654H147.016C147.271 47.1175 147.641 46.7633 148.125 46.5029C148.609 46.2425 149.161 46.1123 149.781 46.1123C150.75 46.1123 151.474 46.3623 151.953 46.8623C152.438 47.3571 152.68 48.1514 152.68 49.2451V54.8311H151.383Z" fill="white"/>
<path d="M43.1953 76.116V83.5066C43.1953 84.8087 42.8021 85.8321 42.0156 86.5769C41.2292 87.3217 40.1484 87.6941 38.7734 87.6941C37.3984 87.6941 36.3333 87.3191 35.5781 86.5691C34.8281 85.8191 34.4531 84.7878 34.4531 83.4753V76.116H35.7812V83.5691C35.7812 84.5222 36.0417 85.254 36.5625 85.7644C37.0833 86.2748 37.849 86.53 38.8594 86.53C39.8229 86.53 40.5651 86.2748 41.0859 85.7644C41.6068 85.2488 41.8672 84.5118 41.8672 83.5535V76.116H43.1953ZM51.8906 87.5378V81.9988C51.8906 81.3009 51.7318 80.78 51.4141 80.4363C51.0964 80.0925 50.599 79.9207 49.9219 79.9207C49.026 79.9207 48.3698 80.1628 47.9531 80.6472C47.5365 81.1316 47.3281 81.9311 47.3281 83.0457V87.5378H46.0312V78.9753H47.0859L47.2969 80.1472H47.3594C47.625 79.7253 47.9974 79.3998 48.4766 79.1707C48.9557 78.9363 49.4896 78.8191 50.0781 78.8191C51.1094 78.8191 51.8854 79.0691 52.4062 79.5691C52.9271 80.0639 53.1875 80.8582 53.1875 81.9519V87.5378H51.8906ZM57.1562 87.5378H55.8594V78.9753H57.1562V87.5378ZM55.75 76.655C55.75 76.3582 55.8229 76.142 55.9688 76.0066C56.1146 75.866 56.2969 75.7957 56.5156 75.7957C56.724 75.7957 56.9036 75.866 57.0547 76.0066C57.2057 76.1472 57.2812 76.3634 57.2812 76.655C57.2812 76.9467 57.2057 77.1654 57.0547 77.3113C56.9036 77.4519 56.724 77.5222 56.5156 77.5222C56.2969 77.5222 56.1146 77.4519 55.9688 77.3113C55.8229 77.1654 55.75 76.9467 55.75 76.655ZM62.6719 86.6238C62.901 86.6238 63.1224 86.6082 63.3359 86.5769C63.5495 86.5404 63.7188 86.504 63.8438 86.4675V87.4597C63.7031 87.5274 63.4948 87.5821 63.2188 87.6238C62.9479 87.6707 62.7031 87.6941 62.4844 87.6941C60.8281 87.6941 60 86.8217 60 85.0769V79.9832H58.7734V79.3582L60 78.8191L60.5469 76.991H61.2969V78.9753H63.7812V79.9832H61.2969V85.0222C61.2969 85.5378 61.4193 85.9337 61.6641 86.2097C61.9089 86.4858 62.2448 86.6238 62.6719 86.6238ZM69.1797 87.6941C67.9141 87.6941 66.9141 87.3087 66.1797 86.5378C65.4505 85.767 65.0859 84.6967 65.0859 83.3269C65.0859 81.9467 65.4245 80.8503 66.1016 80.0378C66.7839 79.2253 67.6979 78.8191 68.8438 78.8191C69.9167 78.8191 70.7656 79.1733 71.3906 79.8816C72.0156 80.5847 72.3281 81.5144 72.3281 82.6707V83.491H66.4297C66.4557 84.4962 66.7083 85.2592 67.1875 85.78C67.6719 86.3009 68.3516 86.5613 69.2266 86.5613C70.1484 86.5613 71.0599 86.3686 71.9609 85.9832V87.1394C71.5026 87.3373 71.0677 87.4779 70.6562 87.5613C70.25 87.6498 69.7578 87.6941 69.1797 87.6941ZM68.8281 79.905C68.1406 79.905 67.5911 80.129 67.1797 80.5769C66.7734 81.0248 66.5339 81.6446 66.4609 82.4363H70.9375C70.9375 81.6186 70.7552 80.9936 70.3906 80.5613C70.026 80.1238 69.5052 79.905 68.8281 79.905ZM80.375 86.3894H80.3047C79.7057 87.2592 78.8099 87.6941 77.6172 87.6941C76.4974 87.6941 75.625 87.3113 75 86.5457C74.3802 85.78 74.0703 84.6915 74.0703 83.28C74.0703 81.8686 74.3828 80.7722 75.0078 79.991C75.6328 79.2097 76.5026 78.8191 77.6172 78.8191C78.7786 78.8191 79.6693 79.241 80.2891 80.0847H80.3906L80.3359 79.4675L80.3047 78.866V75.3816H81.6016V87.5378H80.5469L80.375 86.3894ZM77.7812 86.6082C78.6667 86.6082 79.3073 86.3686 79.7031 85.8894C80.1042 85.405 80.3047 84.6264 80.3047 83.5535V83.28C80.3047 82.0665 80.1016 81.2019 79.6953 80.6863C79.2943 80.1654 78.651 79.905 77.7656 79.905C77.0052 79.905 76.4219 80.2019 76.0156 80.7957C75.6146 81.3842 75.4141 82.2175 75.4141 83.2957C75.4141 84.3894 75.6146 85.2149 76.0156 85.7722C76.4167 86.3295 77.0052 86.6082 77.7812 86.6082ZM95.1562 84.4988C95.1562 85.504 94.7917 86.2878 94.0625 86.8503C93.3333 87.4128 92.3438 87.6941 91.0938 87.6941C89.7396 87.6941 88.6979 87.5196 87.9688 87.1707V85.8894C88.4375 86.0873 88.9479 86.2436 89.5 86.3582C90.0521 86.4727 90.599 86.53 91.1406 86.53C92.026 86.53 92.6927 86.3634 93.1406 86.03C93.5885 85.6915 93.8125 85.2227 93.8125 84.6238C93.8125 84.2279 93.7318 83.905 93.5703 83.655C93.4141 83.3998 93.1484 83.1654 92.7734 82.9519C92.4036 82.7384 91.8385 82.4962 91.0781 82.2253C90.0156 81.8451 89.2552 81.3946 88.7969 80.8738C88.3438 80.3529 88.1172 79.6733 88.1172 78.8347C88.1172 77.9545 88.4479 77.254 89.1094 76.7332C89.7708 76.2123 90.6458 75.9519 91.7344 75.9519C92.8698 75.9519 93.9141 76.1602 94.8672 76.5769L94.4531 77.7332C93.5104 77.3373 92.5938 77.1394 91.7031 77.1394C91 77.1394 90.4505 77.2904 90.0547 77.5925C89.6589 77.8946 89.4609 78.3139 89.4609 78.8503C89.4609 79.2462 89.5339 79.5717 89.6797 79.8269C89.8255 80.0769 90.0703 80.3087 90.4141 80.5222C90.763 80.7306 91.2943 80.9623 92.0078 81.2175C93.2057 81.6446 94.0286 82.1029 94.4766 82.5925C94.9297 83.0821 95.1562 83.7175 95.1562 84.4988ZM100.062 86.6238C100.292 86.6238 100.513 86.6082 100.727 86.5769C100.94 86.5404 101.109 86.504 101.234 86.4675V87.4597C101.094 87.5274 100.885 87.5821 100.609 87.6238C100.339 87.6707 100.094 87.6941 99.875 87.6941C98.2188 87.6941 97.3906 86.8217 97.3906 85.0769V79.9832H96.1641V79.3582L97.3906 78.8191L97.9375 76.991H98.6875V78.9753H101.172V79.9832H98.6875V85.0222C98.6875 85.5378 98.8099 85.9337 99.0547 86.2097C99.2995 86.4858 99.6354 86.6238 100.062 86.6238ZM108.219 87.5378L107.961 86.3191H107.898C107.471 86.8556 107.044 87.2201 106.617 87.4128C106.195 87.6003 105.667 87.6941 105.031 87.6941C104.182 87.6941 103.516 87.4753 103.031 87.0378C102.552 86.6003 102.312 85.9779 102.312 85.1707C102.312 83.4415 103.695 82.5352 106.461 82.4519L107.914 82.405V81.8738C107.914 81.2019 107.768 80.7071 107.477 80.3894C107.19 80.0665 106.729 79.905 106.094 79.905C105.38 79.905 104.573 80.1238 103.672 80.5613L103.273 79.5691C103.695 79.3399 104.156 79.1602 104.656 79.03C105.161 78.8998 105.667 78.8347 106.172 78.8347C107.193 78.8347 107.948 79.0613 108.438 79.5144C108.932 79.9675 109.18 80.6941 109.18 81.6941V87.5378H108.219ZM105.289 86.6238C106.096 86.6238 106.729 86.4024 107.188 85.9597C107.651 85.517 107.883 84.8972 107.883 84.1003V83.3269L106.586 83.3816C105.555 83.4181 104.81 83.5795 104.352 83.866C103.898 84.1472 103.672 84.5873 103.672 85.1863C103.672 85.655 103.812 86.0118 104.094 86.2566C104.38 86.5014 104.779 86.6238 105.289 86.6238ZM114.625 86.6238C114.854 86.6238 115.076 86.6082 115.289 86.5769C115.503 86.5404 115.672 86.504 115.797 86.4675V87.4597C115.656 87.5274 115.448 87.5821 115.172 87.6238C114.901 87.6707 114.656 87.6941 114.438 87.6941C112.781 87.6941 111.953 86.8217 111.953 85.0769V79.9832H110.727V79.3582L111.953 78.8191L112.5 76.991H113.25V78.9753H115.734V79.9832H113.25V85.0222C113.25 85.5378 113.372 85.9337 113.617 86.2097C113.862 86.4858 114.198 86.6238 114.625 86.6238ZM121.133 87.6941C119.867 87.6941 118.867 87.3087 118.133 86.5378C117.404 85.767 117.039 84.6967 117.039 83.3269C117.039 81.9467 117.378 80.8503 118.055 80.0378C118.737 79.2253 119.651 78.8191 120.797 78.8191C121.87 78.8191 122.719 79.1733 123.344 79.8816C123.969 80.5847 124.281 81.5144 124.281 82.6707V83.491H118.383C118.409 84.4962 118.661 85.2592 119.141 85.78C119.625 86.3009 120.305 86.5613 121.18 86.5613C122.102 86.5613 123.013 86.3686 123.914 85.9832V87.1394C123.456 87.3373 123.021 87.4779 122.609 87.5613C122.203 87.6498 121.711 87.6941 121.133 87.6941ZM120.781 79.905C120.094 79.905 119.544 80.129 119.133 80.5769C118.727 81.0248 118.487 81.6446 118.414 82.4363H122.891C122.891 81.6186 122.708 80.9936 122.344 80.5613C121.979 80.1238 121.458 79.905 120.781 79.905ZM132.023 85.2019C132.023 85.9988 131.727 86.6134 131.133 87.0457C130.539 87.4779 129.706 87.6941 128.633 87.6941C127.497 87.6941 126.612 87.5144 125.977 87.155V85.9519C126.388 86.1602 126.828 86.3243 127.297 86.4441C127.771 86.5639 128.227 86.6238 128.664 86.6238C129.341 86.6238 129.862 86.517 130.227 86.3035C130.591 86.0847 130.773 85.754 130.773 85.3113C130.773 84.9779 130.628 84.6941 130.336 84.4597C130.049 84.2201 129.487 83.9389 128.648 83.616C127.852 83.3191 127.284 83.0613 126.945 82.8425C126.612 82.6186 126.362 82.366 126.195 82.0847C126.034 81.8035 125.953 81.4675 125.953 81.0769C125.953 80.379 126.237 79.8295 126.805 79.4285C127.372 79.0222 128.151 78.8191 129.141 78.8191C130.062 78.8191 130.964 79.0066 131.844 79.3816L131.383 80.4363C130.523 80.0821 129.745 79.905 129.047 79.905C128.432 79.905 127.969 80.0014 127.656 80.1941C127.344 80.3868 127.188 80.6524 127.188 80.991C127.188 81.2201 127.245 81.4154 127.359 81.5769C127.479 81.7384 127.669 81.892 127.93 82.0378C128.19 82.1837 128.69 82.3946 129.43 82.6707C130.445 83.0404 131.13 83.4128 131.484 83.7878C131.844 84.1628 132.023 84.6342 132.023 85.2019Z" fill="black"/>
<path d="M35.8984 120.244H34.5703V108.823H40.9375V110.002H35.8984V114.182H40.6328V115.362H35.8984V120.244ZM46.5469 111.526C46.9271 111.526 47.2682 111.557 47.5703 111.619L47.3906 112.823C47.0365 112.744 46.724 112.705 46.4531 112.705C45.7604 112.705 45.1667 112.987 44.6719 113.549C44.1823 114.112 43.9375 114.812 43.9375 115.651V120.244H42.6406V111.682H43.7109L43.8594 113.268H43.9219C44.2396 112.711 44.6224 112.281 45.0703 111.979C45.5182 111.677 46.0104 111.526 46.5469 111.526ZM54.4375 120.244L54.1797 119.026H54.1172C53.6901 119.562 53.263 119.927 52.8359 120.119C52.4141 120.307 51.8854 120.401 51.25 120.401C50.401 120.401 49.7344 120.182 49.25 119.744C48.7708 119.307 48.5312 118.684 48.5312 117.877C48.5312 116.148 49.9141 115.242 52.6797 115.158L54.1328 115.112V114.58C54.1328 113.908 53.987 113.414 53.6953 113.096C53.4089 112.773 52.9479 112.612 52.3125 112.612C51.599 112.612 50.7917 112.83 49.8906 113.268L49.4922 112.276C49.9141 112.046 50.375 111.867 50.875 111.737C51.3802 111.606 51.8854 111.541 52.3906 111.541C53.4115 111.541 54.1667 111.768 54.6562 112.221C55.151 112.674 55.3984 113.401 55.3984 114.401V120.244H54.4375ZM51.5078 119.33C52.3151 119.33 52.9479 119.109 53.4062 118.666C53.8698 118.224 54.1016 117.604 54.1016 116.807V116.033L52.8047 116.088C51.7734 116.125 51.0286 116.286 50.5703 116.573C50.1172 116.854 49.8906 117.294 49.8906 117.893C49.8906 118.362 50.0312 118.718 50.3125 118.963C50.599 119.208 50.9974 119.33 51.5078 119.33ZM63.9375 120.244V114.705C63.9375 114.007 63.7786 113.487 63.4609 113.143C63.1432 112.799 62.6458 112.627 61.9688 112.627C61.0729 112.627 60.4167 112.869 60 113.354C59.5833 113.838 59.375 114.638 59.375 115.752V120.244H58.0781V111.682H59.1328L59.3438 112.854H59.4062C59.6719 112.432 60.0443 112.106 60.5234 111.877C61.0026 111.643 61.5365 111.526 62.125 111.526C63.1562 111.526 63.9323 111.776 64.4531 112.276C64.974 112.77 65.2344 113.565 65.2344 114.658V120.244H63.9375ZM71.3281 120.401C70.0885 120.401 69.1276 120.02 68.4453 119.26C67.7682 118.494 67.4297 117.414 67.4297 116.018C67.4297 114.586 67.7734 113.479 68.4609 112.698C69.1536 111.916 70.138 111.526 71.4141 111.526C71.8255 111.526 72.237 111.57 72.6484 111.658C73.0599 111.747 73.3828 111.851 73.6172 111.971L73.2188 113.073C72.9323 112.958 72.6198 112.864 72.2812 112.791C71.9427 112.713 71.6432 112.674 71.3828 112.674C69.6432 112.674 68.7734 113.783 68.7734 116.002C68.7734 117.054 68.9844 117.862 69.4062 118.424C69.8333 118.987 70.4635 119.268 71.2969 119.268C72.0104 119.268 72.7422 119.114 73.4922 118.807V119.955C72.9193 120.252 72.1979 120.401 71.3281 120.401ZM79.1484 120.401C77.8828 120.401 76.8828 120.015 76.1484 119.244C75.4193 118.474 75.0547 117.403 75.0547 116.033C75.0547 114.653 75.3932 113.557 76.0703 112.744C76.7526 111.932 77.6667 111.526 78.8125 111.526C79.8854 111.526 80.7344 111.88 81.3594 112.588C81.9844 113.291 82.2969 114.221 82.2969 115.377V116.198H76.3984C76.4245 117.203 76.6771 117.966 77.1562 118.487C77.6406 119.007 78.3203 119.268 79.1953 119.268C80.1172 119.268 81.0286 119.075 81.9297 118.69V119.846C81.4714 120.044 81.0365 120.184 80.625 120.268C80.2188 120.356 79.7266 120.401 79.1484 120.401ZM78.7969 112.612C78.1094 112.612 77.5599 112.836 77.1484 113.283C76.7422 113.731 76.5026 114.351 76.4297 115.143H80.9062C80.9062 114.325 80.724 113.7 80.3594 113.268C79.9948 112.83 79.474 112.612 78.7969 112.612Z" fill="black"/>
<path d="M39.5938 146.967H43.4766V152.521C42.8724 152.714 42.2578 152.86 41.6328 152.959C41.0078 153.058 40.2839 153.107 39.4609 153.107C37.7318 153.107 36.3854 152.594 35.4219 151.568C34.4583 150.537 33.9766 149.094 33.9766 147.24C33.9766 146.053 34.2135 145.014 34.6875 144.123C35.1667 143.227 35.8542 142.545 36.75 142.076C37.6458 141.602 38.6953 141.365 39.8984 141.365C41.1172 141.365 42.2526 141.589 43.3047 142.037L42.7891 143.209C41.7578 142.771 40.7656 142.553 39.8125 142.553C38.4219 142.553 37.3359 142.967 36.5547 143.795C35.7734 144.623 35.3828 145.771 35.3828 147.24C35.3828 148.782 35.7578 149.951 36.5078 150.748C37.263 151.545 38.3698 151.943 39.8281 151.943C40.6198 151.943 41.3932 151.852 42.1484 151.67V148.154H39.5938V146.967ZM49.6484 153.107C48.3828 153.107 47.3828 152.722 46.6484 151.951C45.9193 151.18 45.5547 150.11 45.5547 148.74C45.5547 147.36 45.8932 146.264 46.5703 145.451C47.2526 144.639 48.1667 144.232 49.3125 144.232C50.3854 144.232 51.2344 144.587 51.8594 145.295C52.4844 145.998 52.7969 146.928 52.7969 148.084V148.904H46.8984C46.9245 149.91 47.1771 150.673 47.6562 151.193C48.1406 151.714 48.8203 151.975 49.6953 151.975C50.6172 151.975 51.5286 151.782 52.4297 151.396V152.553C51.9714 152.751 51.5365 152.891 51.125 152.975C50.7188 153.063 50.2266 153.107 49.6484 153.107ZM49.2969 145.318C48.6094 145.318 48.0599 145.542 47.6484 145.99C47.2422 146.438 47.0026 147.058 46.9297 147.85H51.4062C51.4062 147.032 51.224 146.407 50.8594 145.975C50.4948 145.537 49.974 145.318 49.2969 145.318ZM58.9219 144.232C59.3021 144.232 59.6432 144.264 59.9453 144.326L59.7656 145.529C59.4115 145.451 59.099 145.412 58.8281 145.412C58.1354 145.412 57.5417 145.693 57.0469 146.256C56.5573 146.818 56.3125 147.519 56.3125 148.357V152.951H55.0156V144.389H56.0859L56.2344 145.975H56.2969C56.6146 145.417 56.9974 144.988 57.4453 144.686C57.8932 144.383 58.3854 144.232 58.9219 144.232ZM72.4609 152.951V147.381C72.4609 146.699 72.3151 146.188 72.0234 145.85C71.7318 145.506 71.2786 145.334 70.6641 145.334C69.8568 145.334 69.2604 145.566 68.875 146.029C68.4896 146.493 68.2969 147.206 68.2969 148.17V152.951H67V147.381C67 146.699 66.8542 146.188 66.5625 145.85C66.2708 145.506 65.8151 145.334 65.1953 145.334C64.3828 145.334 63.7865 145.579 63.4062 146.068C63.0312 146.553 62.8438 147.35 62.8438 148.459V152.951H61.5469V144.389H62.6016L62.8125 145.561H62.875C63.1198 145.144 63.4635 144.818 63.9062 144.584C64.3542 144.35 64.8542 144.232 65.4062 144.232C66.7448 144.232 67.6198 144.717 68.0312 145.686H68.0938C68.349 145.238 68.7188 144.883 69.2031 144.623C69.6875 144.363 70.2396 144.232 70.8594 144.232C71.8281 144.232 72.5521 144.482 73.0312 144.982C73.5156 145.477 73.7578 146.271 73.7578 147.365V152.951H72.4609ZM81.7031 152.951L81.4453 151.732H81.3828C80.9557 152.269 80.5286 152.633 80.1016 152.826C79.6797 153.014 79.151 153.107 78.5156 153.107C77.6667 153.107 77 152.889 76.5156 152.451C76.0365 152.014 75.7969 151.391 75.7969 150.584C75.7969 148.855 77.1797 147.949 79.9453 147.865L81.3984 147.818V147.287C81.3984 146.615 81.2526 146.12 80.9609 145.803C80.6745 145.48 80.2135 145.318 79.5781 145.318C78.8646 145.318 78.0573 145.537 77.1562 145.975L76.7578 144.982C77.1797 144.753 77.6406 144.574 78.1406 144.443C78.6458 144.313 79.151 144.248 79.6562 144.248C80.6771 144.248 81.4323 144.475 81.9219 144.928C82.4167 145.381 82.6641 146.107 82.6641 147.107V152.951H81.7031ZM78.7734 152.037C79.5807 152.037 80.2135 151.816 80.6719 151.373C81.1354 150.93 81.3672 150.311 81.3672 149.514V148.74L80.0703 148.795C79.0391 148.831 78.2943 148.993 77.8359 149.279C77.3828 149.561 77.1562 150.001 77.1562 150.6C77.1562 151.068 77.2969 151.425 77.5781 151.67C77.8646 151.915 78.263 152.037 78.7734 152.037ZM91.2031 152.951V147.412C91.2031 146.714 91.0443 146.193 90.7266 145.85C90.4089 145.506 89.9115 145.334 89.2344 145.334C88.3385 145.334 87.6823 145.576 87.2656 146.061C86.849 146.545 86.6406 147.344 86.6406 148.459V152.951H85.3438V144.389H86.3984L86.6094 145.561H86.6719C86.9375 145.139 87.3099 144.813 87.7891 144.584C88.2682 144.35 88.8021 144.232 89.3906 144.232C90.4219 144.232 91.1979 144.482 91.7188 144.982C92.2396 145.477 92.5 146.271 92.5 147.365V152.951H91.2031ZM93.8125 144.389H95.2031L97.0781 149.271C97.4896 150.386 97.7448 151.191 97.8438 151.686H97.9062C97.974 151.42 98.1146 150.967 98.3281 150.326C98.5469 149.68 99.2552 147.701 100.453 144.389H101.844L98.1641 154.139C97.7995 155.102 97.3724 155.785 96.8828 156.186C96.3984 156.592 95.8021 156.795 95.0938 156.795C94.6979 156.795 94.3073 156.751 93.9219 156.662V155.623C94.2083 155.686 94.5286 155.717 94.8828 155.717C95.7734 155.717 96.4089 155.217 96.7891 154.217L97.2656 152.998L93.8125 144.389Z" fill="black"/>
<path d="M41.0156 182.619C41.0156 183.624 40.651 184.408 39.9219 184.97C39.1927 185.533 38.2031 185.814 36.9531 185.814C35.599 185.814 34.5573 185.639 33.8281 185.291V184.009C34.2969 184.207 34.8073 184.363 35.3594 184.478C35.9115 184.593 36.4583 184.65 37 184.65C37.8854 184.65 38.5521 184.483 39 184.15C39.4479 183.811 39.6719 183.343 39.6719 182.744C39.6719 182.348 39.5911 182.025 39.4297 181.775C39.2734 181.52 39.0078 181.285 38.6328 181.072C38.263 180.858 37.6979 180.616 36.9375 180.345C35.875 179.965 35.1146 179.514 34.6562 178.994C34.2031 178.473 33.9766 177.793 33.9766 176.955C33.9766 176.074 34.3073 175.374 34.9688 174.853C35.6302 174.332 36.5052 174.072 37.5938 174.072C38.7292 174.072 39.7734 174.28 40.7266 174.697L40.3125 175.853C39.3698 175.457 38.4531 175.259 37.5625 175.259C36.8594 175.259 36.3099 175.41 35.9141 175.712C35.5182 176.014 35.3203 176.434 35.3203 176.97C35.3203 177.366 35.3932 177.692 35.5391 177.947C35.6849 178.197 35.9297 178.429 36.2734 178.642C36.6224 178.85 37.1536 179.082 37.8672 179.337C39.0651 179.764 39.888 180.223 40.3359 180.712C40.7891 181.202 41.0156 181.837 41.0156 182.619ZM47.1406 185.814C46.5833 185.814 46.0729 185.712 45.6094 185.509C45.151 185.301 44.7656 184.983 44.4531 184.556H44.3594C44.4219 185.056 44.4531 185.53 44.4531 185.978V189.501H43.1562V177.095H44.2109L44.3906 178.267H44.4531C44.7865 177.798 45.1745 177.46 45.6172 177.251C46.0599 177.043 46.5677 176.939 47.1406 176.939C48.276 176.939 49.151 177.327 49.7656 178.103C50.3854 178.879 50.6953 179.968 50.6953 181.369C50.6953 182.775 50.3802 183.869 49.75 184.65C49.125 185.426 48.2552 185.814 47.1406 185.814ZM46.9531 178.041C46.0781 178.041 45.4453 178.283 45.0547 178.767C44.6641 179.251 44.4635 180.022 44.4531 181.08V181.369C44.4531 182.572 44.6536 183.434 45.0547 183.955C45.4557 184.47 46.099 184.728 46.9844 184.728C47.724 184.728 48.3021 184.429 48.7188 183.83C49.1406 183.231 49.3516 182.405 49.3516 181.353C49.3516 180.285 49.1406 179.468 48.7188 178.9C48.3021 178.327 47.7135 178.041 46.9531 178.041ZM58.2344 185.658L57.9766 184.439H57.9141C57.487 184.975 57.0599 185.34 56.6328 185.533C56.2109 185.72 55.6823 185.814 55.0469 185.814C54.1979 185.814 53.5312 185.595 53.0469 185.158C52.5677 184.72 52.3281 184.098 52.3281 183.291C52.3281 181.561 53.7109 180.655 56.4766 180.572L57.9297 180.525V179.994C57.9297 179.322 57.7839 178.827 57.4922 178.509C57.2057 178.186 56.7448 178.025 56.1094 178.025C55.3958 178.025 54.5885 178.244 53.6875 178.681L53.2891 177.689C53.7109 177.46 54.1719 177.28 54.6719 177.15C55.1771 177.02 55.6823 176.955 56.1875 176.955C57.2083 176.955 57.9635 177.181 58.4531 177.634C58.9479 178.087 59.1953 178.814 59.1953 179.814V185.658H58.2344ZM55.3047 184.744C56.112 184.744 56.7448 184.522 57.2031 184.08C57.6667 183.637 57.8984 183.017 57.8984 182.22V181.447L56.6016 181.501C55.5703 181.538 54.8255 181.699 54.3672 181.986C53.9141 182.267 53.6875 182.707 53.6875 183.306C53.6875 183.775 53.8281 184.132 54.1094 184.376C54.3958 184.621 54.7943 184.744 55.3047 184.744ZM63.1719 185.658H61.875V177.095H63.1719V185.658ZM61.7656 174.775C61.7656 174.478 61.8385 174.262 61.9844 174.126C62.1302 173.986 62.3125 173.916 62.5312 173.916C62.7396 173.916 62.9193 173.986 63.0703 174.126C63.2214 174.267 63.2969 174.483 63.2969 174.775C63.2969 175.067 63.2214 175.285 63.0703 175.431C62.9193 175.572 62.7396 175.642 62.5312 175.642C62.3125 175.642 62.1302 175.572 61.9844 175.431C61.8385 175.285 61.7656 175.067 61.7656 174.775ZM71.7812 185.658V180.119C71.7812 179.421 71.6224 178.9 71.3047 178.556C70.987 178.212 70.4896 178.041 69.8125 178.041C68.9167 178.041 68.2604 178.283 67.8438 178.767C67.4271 179.251 67.2188 180.051 67.2188 181.166V185.658H65.9219V177.095H66.9766L67.1875 178.267H67.25C67.5156 177.845 67.888 177.52 68.3672 177.291C68.8464 177.056 69.3802 176.939 69.9688 176.939C71 176.939 71.776 177.189 72.2969 177.689C72.8177 178.184 73.0781 178.978 73.0781 180.072V185.658H71.7812Z" fill="black"/>
<path d="M40.9375 218.365H34.5703V206.943H40.9375V208.122H35.8984V211.802H40.6328V212.974H35.8984V217.177H40.9375V218.365ZM48.8047 216.029C48.8047 216.825 48.5078 217.44 47.9141 217.872C47.3203 218.305 46.487 218.521 45.4141 218.521C44.2786 218.521 43.3932 218.341 42.7578 217.982V216.779C43.1693 216.987 43.6094 217.151 44.0781 217.271C44.5521 217.391 45.0078 217.45 45.4453 217.45C46.1224 217.45 46.6432 217.344 47.0078 217.13C47.3724 216.911 47.5547 216.581 47.5547 216.138C47.5547 215.805 47.4089 215.521 47.1172 215.286C46.8307 215.047 46.2682 214.766 45.4297 214.443C44.6328 214.146 44.0651 213.888 43.7266 213.669C43.3932 213.445 43.1432 213.193 42.9766 212.911C42.8151 212.63 42.7344 212.294 42.7344 211.904C42.7344 211.206 43.0182 210.656 43.5859 210.255C44.1536 209.849 44.9323 209.646 45.9219 209.646C46.8438 209.646 47.7448 209.833 48.625 210.208L48.1641 211.263C47.3047 210.909 46.526 210.732 45.8281 210.732C45.2135 210.732 44.75 210.828 44.4375 211.021C44.125 211.213 43.9688 211.479 43.9688 211.818C43.9688 212.047 44.026 212.242 44.1406 212.404C44.2604 212.565 44.4505 212.719 44.7109 212.865C44.9714 213.01 45.4714 213.221 46.2109 213.497C47.2266 213.867 47.9115 214.24 48.2656 214.615C48.625 214.99 48.8047 215.461 48.8047 216.029ZM53.6875 217.45C53.9167 217.45 54.138 217.435 54.3516 217.404C54.5651 217.367 54.7344 217.331 54.8594 217.294V218.286C54.7188 218.354 54.5104 218.409 54.2344 218.45C53.9635 218.497 53.7188 218.521 53.5 218.521C51.8438 218.521 51.0156 217.648 51.0156 215.904V210.81H49.7891V210.185L51.0156 209.646L51.5625 207.818H52.3125V209.802H54.7969V210.81H52.3125V215.849C52.3125 216.365 52.4349 216.76 52.6797 217.036C52.9245 217.312 53.2604 217.45 53.6875 217.45ZM63.9688 214.075C63.9688 215.471 63.6172 216.562 62.9141 217.349C62.2109 218.13 61.2396 218.521 60 218.521C59.2344 218.521 58.5547 218.341 57.9609 217.982C57.3672 217.622 56.9089 217.107 56.5859 216.435C56.263 215.763 56.1016 214.976 56.1016 214.075C56.1016 212.68 56.4505 211.594 57.1484 210.818C57.8464 210.036 58.8151 209.646 60.0547 209.646C61.2526 209.646 62.2031 210.044 62.9062 210.841C63.6146 211.638 63.9688 212.716 63.9688 214.075ZM57.4453 214.075C57.4453 215.169 57.6641 216.003 58.1016 216.575C58.5391 217.148 59.1823 217.435 60.0312 217.435C60.8802 217.435 61.5234 217.151 61.9609 216.583C62.4036 216.01 62.625 215.174 62.625 214.075C62.625 212.987 62.4036 212.161 61.9609 211.599C61.5234 211.031 60.875 210.747 60.0156 210.747C59.1667 210.747 58.526 211.026 58.0938 211.583C57.6615 212.141 57.4453 212.971 57.4453 214.075ZM72.1094 218.365V212.825C72.1094 212.128 71.9505 211.607 71.6328 211.263C71.3151 210.919 70.8177 210.747 70.1406 210.747C69.2448 210.747 68.5885 210.99 68.1719 211.474C67.7552 211.958 67.5469 212.758 67.5469 213.872V218.365H66.25V209.802H67.3047L67.5156 210.974H67.5781C67.8438 210.552 68.2161 210.226 68.6953 209.997C69.1745 209.763 69.7083 209.646 70.2969 209.646C71.3281 209.646 72.1042 209.896 72.625 210.396C73.1458 210.891 73.4062 211.685 73.4062 212.779V218.365H72.1094ZM77.375 218.365H76.0781V209.802H77.375V218.365ZM75.9688 207.482C75.9688 207.185 76.0417 206.969 76.1875 206.833C76.3333 206.693 76.5156 206.622 76.7344 206.622C76.9427 206.622 77.1224 206.693 77.2734 206.833C77.4245 206.974 77.5 207.19 77.5 207.482C77.5 207.773 77.4245 207.992 77.2734 208.138C77.1224 208.279 76.9427 208.349 76.7344 208.349C76.5156 208.349 76.3333 208.279 76.1875 208.138C76.0417 207.992 75.9688 207.773 75.9688 207.482ZM85.3906 218.365L85.1328 217.146H85.0703C84.6432 217.682 84.2161 218.047 83.7891 218.24C83.3672 218.427 82.8385 218.521 82.2031 218.521C81.3542 218.521 80.6875 218.302 80.2031 217.865C79.724 217.427 79.4844 216.805 79.4844 215.997C79.4844 214.268 80.8672 213.362 83.6328 213.279L85.0859 213.232V212.7C85.0859 212.029 84.9401 211.534 84.6484 211.216C84.362 210.893 83.901 210.732 83.2656 210.732C82.5521 210.732 81.7448 210.95 80.8438 211.388L80.4453 210.396C80.8672 210.167 81.3281 209.987 81.8281 209.857C82.3333 209.726 82.8385 209.661 83.3438 209.661C84.3646 209.661 85.1198 209.888 85.6094 210.341C86.1042 210.794 86.3516 211.521 86.3516 212.521V218.365H85.3906ZM82.4609 217.45C83.2682 217.45 83.901 217.229 84.3594 216.786C84.8229 216.344 85.0547 215.724 85.0547 214.927V214.154L83.7578 214.208C82.7266 214.245 81.9818 214.406 81.5234 214.693C81.0703 214.974 80.8438 215.414 80.8438 216.013C80.8438 216.482 80.9844 216.838 81.2656 217.083C81.5521 217.328 81.9505 217.45 82.4609 217.45Z" fill="black"/>
<defs>
<filter id="filter0_d_5192_86" x="0" y="0" width="246" height="261" filterUnits="userSpaceOnUse" color-interpolation-filters="sRGB">
<feFlood flood-opacity="0" result="BackgroundImageFix"/>
<feColorMatrix in="SourceAlpha" type="matrix" values="0 0 0 0 0 0 0 0 0 0 0 0 0 0 0 0 0 0 127 0" result="hardAlpha"/>
<feOffset/>
<feGaussianBlur stdDeviation="9.5"/>
<feColorMatrix type="matrix" values="0 0 0 0 0 0 0 0 0 0 0 0 0 0 0 0 0 0 0.1 0"/>
<feBlend mode="normal" in2="BackgroundImageFix" result="effect1_dropShadow_5192_86"/>
<feBlend mode="normal" in="SourceGraphic" in2="effect1_dropShadow_5192_86" result="shape"/>
</filter>
</defs>
</svg>
